<?xml version="1.0" encoding="UTF-8" standalone="no"?><svg xmlns="http://www.w3.org/2000/svg" xmlns:xlink="http://www.w3.org/1999/xlink" data-name="Circular Glyph" fill="#369963" height="64" preserveAspectRatio="xMidYMid meet" version="1" viewBox="0.0 0.0 64.0 64.0" width="64" zoomAndPan="magnify"><g id="change1_1"><path d="M32,0A32,32,0,1,0,64,32,32.004,32.004,0,0,0,32,0ZM17.26,16.21H46.74a5.25682,5.25682,0,0,1,5.2,4.47c-.42.23-16.62,9.57-17.69,10.18a4.56855,4.56855,0,0,1-4.5,0c-1.05-.6-17.29-9.85-17.69-10.1A5.247,5.247,0,0,1,17.26,16.21ZM52,42.53a5.26643,5.26643,0,0,1-5.26,5.26H17.26A5.26643,5.26643,0,0,1,12,42.53V23.15l16.72,9.54a6.63686,6.63686,0,0,0,6.57,0L52,23.07Z"/></g></svg>